<svg width="231" height="148" viewBox="0 0 231 148" fill="none" xmlns="http://www.w3.org/2000/svg">
<mask id="mask0_158_1919" style="mask-type:alpha" maskUnits="userSpaceOnUse" x="62" y="41" width="107" height="107">
<circle cx="115.485" cy="94.5555" r="53.4444" fill="#D9D9D9"/>
</mask>
<g mask="url(#mask0_158_1919)">
<rect x="29.899" y="36.6262" width="181.636" height="90.4444" fill="#FCDD5C"/>
</g>
<rect x="119.596" y="20.1818" width="1.49495" height="8.22222" rx="0.747475" fill="#C6CF5F"/>
<rect x="140.525" y="39.6162" width="1.49495" height="8.22222" rx="0.747475" fill="#C6CF5F"/>
<rect x="148.027" y="42.6061" width="1.49495" height="8.22222" rx="0.747475" transform="rotate(46.9286 148.027 42.6061)" fill="#C6CF5F"/>
<rect x="104.186" y="23.3489" width="1.49495" height="8.22222" rx="0.747475" transform="rotate(-30 104.186 23.3489)" fill="#C6CF5F"/>
<rect x="100.162" y="29.6987" width="1.49495" height="8.22222" rx="0.747475" transform="rotate(-60 100.162 29.6987)" fill="#C6CF5F"/>
<rect x="98.6815" y="44.1829" width="1.49495" height="8.22222" rx="0.747475" transform="rotate(-90.5707 98.6815 44.1829)" fill="#C6CF5F"/>
<rect x="99.429" y="57.6375" width="1.49495" height="8.22222" rx="0.747475" transform="rotate(-90.5707 99.429 57.6375)" fill="#C6CF5F"/>
<rect x="80.7421" y="75.5768" width="1.49495" height="8.22222" rx="0.747475" transform="rotate(-90.5707 80.7421 75.5768)" fill="#C6CF5F"/>
<rect x="87.0273" y="89.8889" width="1.49495" height="8.22222" rx="0.747475" transform="rotate(-135.584 87.0273 89.8889)" fill="#C6CF5F"/>
<rect x="99.429" y="103.981" width="1.49495" height="8.22222" rx="0.747475" transform="rotate(-90.5707 99.429 103.981)" fill="#C6CF5F"/>
<rect x="123.348" y="98.001" width="1.49495" height="8.22222" rx="0.747475" transform="rotate(-90.5707 123.348 98.001)" fill="#C6CF5F"/>
<rect x="122.601" y="89.0312" width="1.49495" height="8.22222" rx="0.747475" transform="rotate(-90.5707 122.601 89.0312)" fill="#C6CF5F"/>
<rect x="142.035" y="60.6273" width="1.49495" height="8.22222" rx="0.747475" transform="rotate(-90.5707 142.035 60.6273)" fill="#C6CF5F"/>
<rect x="122.601" y="45.6779" width="1.49495" height="8.22222" rx="0.747475" transform="rotate(-90.5707 122.601 45.6779)" fill="#C6CF5F"/>
<rect x="122.601" y="33.7183" width="1.49495" height="8.22222" rx="0.747475" transform="rotate(-90.5707 122.601 33.7183)" fill="#C6CF5F"/>
<rect x="139.778" y="67.6733" width="1.49495" height="8.22222" rx="0.747475" transform="rotate(-50.1746 139.778 67.6733)" fill="#C6CF5F"/>
<rect x="122.601" y="110.708" width="1.49495" height="8.22222" rx="0.747475" transform="rotate(-90.5707 122.601 110.708)" fill="#C6CF5F"/>
<rect x="122.601" y="122.668" width="1.49495" height="8.22222" rx="0.747475" transform="rotate(-90.5707 122.601 122.668)" fill="#C6CF5F"/>
<rect x="99.429" y="118.183" width="1.49495" height="8.22222" rx="0.747475" transform="rotate(-90.5707 99.429 118.183)" fill="#C6CF5F"/>
<path d="M83.7172 62.7879C83.7172 59.4854 86.3944 56.8081 89.697 56.8081C92.9995 56.8081 95.6768 59.4854 95.6768 62.7879V77.314C95.6768 78.7863 96.8703 79.9798 98.3425 79.9798H104.273V91.1919H98.4531C90.3147 91.1919 83.7172 84.5944 83.7172 76.456V62.7879Z" fill="#8FD172"/>
<path d="M147.626 47.8384C147.626 44.5359 144.949 41.8586 141.646 41.8586C138.344 41.8586 135.667 44.5359 135.667 47.8384V62.3646C135.667 63.8368 134.473 65.0304 133.001 65.0304H127.071V76.2425H132.89C141.029 76.2425 147.626 69.645 147.626 61.5065V47.8384Z" fill="#8FD172"/>
<path d="M103.899 34.01C103.899 27.6114 109.086 22.4242 115.485 22.4242C121.884 22.4242 127.071 27.6114 127.071 34.0101V127.071H103.899V34.01Z" fill="#8FD172"/>
<path fill-rule="evenodd" clip-rule="evenodd" d="M35.8788 30.6464C35.8788 26.9311 38.8907 23.9192 42.6061 23.9192L42.6124 23.9192C42.6082 23.7951 42.6061 23.6705 42.6061 23.5454C42.6061 17.5595 47.4586 12.707 53.4444 12.707C58.4514 12.707 62.6653 16.1021 63.9097 20.7158C64.8407 20.3705 65.8478 20.1818 66.899 20.1818C71.6464 20.1818 75.4949 24.0303 75.4949 28.7777C75.4949 28.904 75.4922 29.0286 75.4868 29.1515H75.4949C75.4949 33.2797 72.1484 36.6262 68.0202 36.6262H41.8586C39.1047 36.6262 36.7855 34.7646 36.091 32.2311C35.9525 31.7549 35.8788 31.2276 35.8788 30.6464Z" fill="#E3F0FA"/>
<path fill-rule="evenodd" clip-rule="evenodd" d="M180.889 15.9042C180.887 12.6114 178.217 9.94282 174.923 9.94282L174.918 9.94282C174.921 9.83281 174.923 9.72232 174.923 9.6114C174.923 4.30317 170.62 0 165.312 0C160.872 0 157.135 3.01076 156.031 7.10211C155.206 6.79587 154.313 6.62855 153.38 6.62855C149.17 6.62855 145.758 10.0414 145.758 14.2514C145.758 14.3633 145.76 14.4738 145.765 14.5828H145.758C145.758 18.2436 148.725 21.2113 152.386 21.2113H175.586C178.028 21.2113 180.085 19.5606 180.701 17.3142C180.823 16.8918 180.889 16.424 180.889 15.9085C180.889 15.9085 180.889 15.9085 180.889 15.9085" fill="#E3F0FA"/>
<path fill-rule="evenodd" clip-rule="evenodd" d="M1.48057 127.444H0V126.697H1.48057V127.444ZM7.40287 127.444H4.44173V126.697H7.40287V127.444ZM13.3252 127.444H10.364V126.697H13.3252V127.444ZM19.2475 127.444H16.2863V126.697H19.2475V127.444ZM25.1698 127.444H22.2086V126.697H25.1698V127.444ZM31.0921 127.444H28.1309V126.697H31.0921V127.444ZM37.0144 127.444H34.0532V126.697H37.0144V127.444ZM42.9367 127.444H39.9755V126.697H42.9367V127.444ZM48.859 127.444H45.8978V126.697H48.859V127.444ZM54.7813 127.444H51.8201V126.697H54.7813V127.444ZM60.7036 127.444H57.7424V126.697H60.7036V127.444ZM66.6259 127.444H63.6647V126.697H66.6259V127.444ZM72.5482 127.444H69.587V126.697H72.5482V127.444ZM78.4705 127.444H75.5093V126.697H78.4705V127.444ZM84.3928 127.444H81.4316V126.697H84.3928V127.444ZM90.3151 127.444H87.3539V126.697H90.3151V127.444ZM96.2374 127.444H93.2762V126.697H96.2374V127.444ZM102.16 127.444H99.1985V126.697H102.16V127.444ZM108.082 127.444H105.121V126.697H108.082V127.444ZM114.004 127.444H111.043V126.697H114.004V127.444ZM119.927 127.444H116.965V126.697H119.927V127.444ZM125.849 127.444H122.888V126.697H125.849V127.444ZM131.771 127.444H128.81V126.697H131.771V127.444ZM137.693 127.444H134.732V126.697H137.693V127.444ZM143.616 127.444H140.655V126.697H143.616V127.444ZM149.538 127.444H146.577V126.697H149.538V127.444ZM155.46 127.444H152.499V126.697H155.46V127.444ZM161.383 127.444H158.421V126.697H161.383V127.444ZM167.305 127.444H164.344V126.697H167.305V127.444ZM173.227 127.444H170.266V126.697H173.227V127.444ZM179.149 127.444H176.188V126.697H179.149V127.444ZM185.072 127.444H182.111V126.697H185.072V127.444ZM190.994 127.444H188.033V126.697H190.994V127.444ZM196.916 127.444H193.955V126.697H196.916V127.444ZM202.839 127.444H199.878V126.697H202.839V127.444ZM208.761 127.444H205.8V126.697H208.761V127.444ZM214.683 127.444H211.722V126.697H214.683V127.444ZM220.606 127.444H217.644V126.697H220.606V127.444ZM226.528 127.444H223.567V126.697H226.528V127.444ZM230.97 127.444H229.489V126.697H230.97V127.444Z" fill="#2A9041"/>
</svg>
