<svg width="207" height="116" viewBox="0 0 207 116" fill="none" xmlns="http://www.w3.org/2000/svg">
<path d="M107.275 32.8446H120.57C120.644 33.1465 120.708 33.5123 120.758 33.9421C120.808 34.3719 120.833 34.8017 120.833 35.2315C120.833 36.9719 120.566 38.6164 120.037 40.1544C119.508 41.6959 118.673 43.0705 117.536 44.2817C116.325 45.5711 114.872 46.5656 113.182 47.2725C111.491 47.9793 109.559 48.3345 107.389 48.3345C105.417 48.3345 103.563 47.9793 101.823 47.2725C100.082 46.5656 98.5656 45.5818 97.2762 44.3173C95.9869 43.0563 94.9675 41.5574 94.2074 39.8276C93.4508 38.0979 93.0708 36.2118 93.0708 34.1659C93.0708 32.12 93.4508 30.2339 94.2074 28.5041C94.9639 26.7744 95.9869 25.279 97.2762 24.0145C98.5656 22.7536 100.079 21.7662 101.823 21.0593C103.563 20.3525 105.421 19.9973 107.389 19.9973C109.584 19.9973 111.548 20.3774 113.278 21.1339C115.007 21.8905 116.492 22.9383 117.728 24.2774L114.205 27.7227C113.32 26.7886 112.336 26.0747 111.249 25.5845C110.163 25.0908 108.863 24.8457 107.349 24.8457C106.113 24.8457 104.938 25.0659 103.826 25.5099C102.714 25.9503 101.745 26.5755 100.91 27.3853C100.075 28.1951 99.4145 29.1719 98.9208 30.3192C98.427 31.47 98.182 32.7487 98.182 34.1623C98.182 35.576 98.427 36.8582 98.9208 38.0055C99.4145 39.1563 100.082 40.1331 100.928 40.9394C101.773 41.7492 102.75 42.3744 103.861 42.8148C104.973 43.2552 106.16 43.479 107.42 43.479C108.859 43.479 110.077 43.2695 111.075 42.8539C112.073 42.4383 112.926 41.902 113.633 41.2449C114.137 40.7902 114.574 40.2148 114.94 39.5222C115.306 38.8296 115.59 38.0517 115.792 37.1921H107.271V32.8446H107.275Z" fill="white"/>
<path d="M127.233 26.6713C126.803 26.6713 126.395 26.5896 126.001 26.4262C125.61 26.2628 125.269 26.0355 124.978 25.7442C124.686 25.453 124.459 25.1191 124.296 24.7391C124.132 24.359 124.051 23.9434 124.051 23.4888C124.051 23.0341 124.132 22.6186 124.296 22.2385C124.459 21.8585 124.686 21.5246 124.978 21.2333C125.269 20.9421 125.61 20.7147 126.001 20.5513C126.391 20.388 126.803 20.3063 127.233 20.3063C128.117 20.3063 128.874 20.6153 129.506 21.2333C130.139 21.8514 130.455 22.6044 130.455 23.4852C130.455 24.3697 130.139 25.1191 129.506 25.7372C128.874 26.3623 128.117 26.6713 127.233 26.6713ZM124.772 47.727V29.1683H129.734V47.727H124.772Z" fill="white"/>
<path d="M142.648 56.5145C141.334 56.5145 140.169 56.344 139.146 56.003C138.123 55.662 137.235 55.2216 136.475 54.6781C135.719 54.1347 135.086 53.5344 134.582 52.8809C134.078 52.2238 133.712 51.5667 133.484 50.9096L138.219 49.0164C138.571 50.0003 139.153 50.7639 139.963 51.3074C140.769 51.8508 141.668 52.1208 142.652 52.1208C144.218 52.1208 145.454 51.6128 146.364 50.597C147.273 49.5811 147.728 48.1817 147.728 46.4022V45.1128H147.426C146.843 45.9227 146.079 46.5585 145.135 47.0273C144.186 47.4962 143.071 47.727 141.782 47.727C140.67 47.727 139.59 47.5033 138.542 47.0522C137.495 46.6011 136.567 45.9582 135.758 45.1199C134.948 44.2817 134.294 43.2765 133.79 42.1008C133.286 40.9251 133.033 39.6145 133.033 38.1617C133.033 36.709 133.286 35.3912 133.79 34.2049C134.294 33.0186 134.951 32.0063 135.758 31.168C136.564 30.3298 137.495 29.6869 138.542 29.2358C139.59 28.7847 140.67 28.5609 141.782 28.5609C143.071 28.5609 144.186 28.7954 145.135 29.2607C146.083 29.7295 146.847 30.3653 147.426 31.1716H147.728V29.1647H152.462V46.3986C152.462 47.965 152.221 49.3716 151.741 50.6219C151.262 51.8721 150.594 52.9306 149.734 53.8044C148.875 54.6746 147.845 55.3459 146.648 55.8112C145.444 56.2801 144.112 56.5145 142.648 56.5145ZM142.837 43.2587C143.444 43.2587 144.041 43.1486 144.634 42.9248C145.227 42.7011 145.753 42.3743 146.207 41.941C146.662 41.5077 147.028 40.9749 147.305 40.3426C147.582 39.7104 147.72 38.9858 147.72 38.1653C147.72 37.3484 147.582 36.6167 147.305 35.9702C147.028 35.3273 146.662 34.7874 146.207 34.3541C145.753 33.9207 145.227 33.5904 144.634 33.3702C144.041 33.1464 143.44 33.0363 142.837 33.0363C142.229 33.0363 141.636 33.1464 141.057 33.3702C140.475 33.594 139.96 33.9279 139.505 34.3754C139.05 34.823 138.684 35.3628 138.407 35.9915C138.13 36.6238 137.992 37.3484 137.992 38.1653C137.992 38.9822 138.13 39.7104 138.407 40.3426C138.684 40.9749 139.05 41.5077 139.505 41.941C139.96 42.3743 140.478 42.7046 141.057 42.9248C141.636 43.1486 142.233 43.2587 142.837 43.2587Z" fill="white"/>
<path d="M165.068 56.5145C163.754 56.5145 162.589 56.344 161.566 56.003C160.543 55.662 159.655 55.2216 158.895 54.6781C158.138 54.1347 157.506 53.5344 157.002 52.8809C156.497 52.2238 156.131 51.5667 155.904 50.9096L160.639 49.0164C160.99 50.0003 161.573 50.7639 162.379 51.3074C163.186 51.8508 164.084 52.1208 165.068 52.1208C166.634 52.1208 167.871 51.6128 168.78 50.597C169.689 49.5811 170.144 48.1817 170.144 46.4022V45.1128H169.842C169.259 45.9227 168.496 46.5585 167.551 47.0273C166.602 47.4962 165.487 47.727 164.198 47.727C163.086 47.727 162.006 47.5033 160.958 47.0522C159.911 46.6011 158.984 45.9582 158.174 45.1199C157.364 44.2817 156.71 43.2765 156.206 42.1008C155.702 40.9251 155.449 39.6145 155.449 38.1617C155.449 36.709 155.702 35.3912 156.206 34.2049C156.71 33.0186 157.367 32.0063 158.174 31.168C158.98 30.3298 159.911 29.6869 160.958 29.2358C162.006 28.7847 163.086 28.5609 164.198 28.5609C165.487 28.5609 166.602 28.7954 167.551 29.2607C168.499 29.7295 169.259 30.3653 169.842 31.1716H170.144V29.1647H174.878V46.3986C174.878 47.965 174.637 49.3716 174.157 50.6219C173.678 51.8721 173.007 52.9306 172.151 53.8044C171.291 54.6746 170.261 55.3459 169.064 55.8112C167.867 56.2801 166.531 56.5145 165.068 56.5145ZM165.26 43.2587C165.867 43.2587 166.464 43.1486 167.057 42.9248C167.65 42.7011 168.176 42.3743 168.631 41.941C169.085 41.5077 169.451 40.9749 169.728 40.3426C170.005 39.7104 170.144 38.9858 170.144 38.1653C170.144 37.3484 170.005 36.6167 169.728 35.9702C169.451 35.3273 169.085 34.7874 168.631 34.3541C168.176 33.9207 167.65 33.5904 167.057 33.3702C166.464 33.1464 165.864 33.0363 165.26 33.0363C164.656 33.0363 164.059 33.1464 163.48 33.3702C162.898 33.594 162.383 33.9279 161.928 34.3754C161.474 34.823 161.108 35.3628 160.831 35.9915C160.554 36.6238 160.415 37.3484 160.415 38.1653C160.415 38.9822 160.554 39.7104 160.831 40.3426C161.108 40.9749 161.474 41.5077 161.928 41.941C162.383 42.3743 162.898 42.7046 163.48 42.9248C164.059 43.1486 164.652 43.2587 165.26 43.2587Z" fill="white"/>
<path d="M179.119 47.727V20.6082H184.081V47.727H179.119Z" fill="white"/>
<path d="M205.709 43.2587C204.849 44.7718 203.695 45.9972 202.242 46.9314C200.79 47.8656 199.017 48.3344 196.922 48.3344C195.508 48.3344 194.201 48.0893 193 47.5956C191.8 47.1019 190.759 46.4164 189.875 45.5319C188.99 44.6475 188.305 43.6068 187.811 42.4063C187.317 41.2057 187.072 39.888 187.072 38.4494C187.072 37.1104 187.31 35.8423 187.793 34.6418C188.273 33.4412 188.94 32.3934 189.8 31.4983C190.66 30.6033 191.675 29.8893 192.848 29.3601C194.023 28.8308 195.316 28.5645 196.73 28.5645C198.218 28.5645 199.546 28.8095 200.708 29.3033C201.869 29.797 202.843 30.4789 203.624 31.3492C204.405 32.2194 204.999 33.2494 205.404 34.4358C205.808 35.6221 206.011 36.9115 206.011 38.3003C206.011 38.4779 206.011 38.627 206.011 38.7549C205.986 38.9076 205.972 39.0462 205.972 39.1705C205.947 39.2983 205.933 39.4369 205.933 39.586H191.956C192.055 40.3426 192.265 40.9926 192.581 41.536C192.897 42.0795 193.288 42.5341 193.757 42.9C194.222 43.2658 194.734 43.5322 195.291 43.6956C195.845 43.859 196.414 43.9407 196.996 43.9407C198.133 43.9407 199.074 43.6814 199.816 43.1628C200.562 42.6442 201.148 41.9943 201.578 41.2128L205.709 43.2587ZM201.202 36.0626C201.177 35.7358 201.07 35.3699 200.878 34.965C200.69 34.5601 200.41 34.1836 200.044 33.8284C199.678 33.4768 199.223 33.1855 198.68 32.9582C198.136 32.7308 197.486 32.6172 196.73 32.6172C195.668 32.6172 194.734 32.9191 193.927 33.5265C193.121 34.1339 192.549 34.9792 192.222 36.0626H201.202Z" fill="white"/>
<path d="M32.6776 31.9672H0V32.3224C0 50.3696 14.6303 65 32.6776 65V31.9672Z" fill="white"/>
<path d="M39.4262 31.9672H72.1038V32.3224C72.1038 50.3696 57.4735 65 39.4262 65V31.9672Z" fill="white"/>
<path d="M16.3388 26.2842C23.597 26.2842 29.4809 20.4002 29.4809 13.1421C29.4809 5.88391 23.597 0 16.3388 0C9.08062 0 3.19672 5.88391 3.19672 13.1421C3.19672 20.4002 9.08062 26.2842 16.3388 26.2842Z" fill="white"/>
<path d="M55.765 26.2842C63.0232 26.2842 68.9071 20.4002 68.9071 13.1421C68.9071 5.88391 63.0232 0 55.765 0C48.5069 0 42.623 5.88391 42.623 13.1421C42.623 20.4002 48.5069 26.2842 55.765 26.2842Z" fill="white"/>
<path d="M1.44 98.68H4.14V104.4H10.16V98.68H12.86V113H10.16V106.96H4.14V113H1.44V98.68ZM34.3216 113.32C33.2549 113.32 32.2616 113.127 31.3416 112.74C30.4349 112.353 29.6482 111.827 28.9816 111.16C28.3149 110.48 27.7882 109.687 27.4016 108.78C27.0282 107.86 26.8416 106.88 26.8416 105.84C26.8416 104.8 27.0282 103.827 27.4016 102.92C27.7882 102 28.3149 101.207 28.9816 100.54C29.6482 99.86 30.4349 99.3267 31.3416 98.94C32.2616 98.5533 33.2549 98.36 34.3216 98.36C35.3882 98.36 36.3749 98.5533 37.2816 98.94C38.2016 99.3267 38.9949 99.86 39.6616 100.54C40.3282 101.207 40.8482 102 41.2216 102.92C41.6082 103.827 41.8016 104.8 41.8016 105.84C41.8016 106.88 41.6082 107.86 41.2216 108.78C40.8482 109.687 40.3282 110.48 39.6616 111.16C38.9949 111.827 38.2016 112.353 37.2816 112.74C36.3749 113.127 35.3882 113.32 34.3216 113.32ZM34.3216 110.76C34.9882 110.76 35.6082 110.64 36.1816 110.4C36.7682 110.16 37.2749 109.827 37.7016 109.4C38.1416 108.973 38.4816 108.46 38.7216 107.86C38.9749 107.247 39.1016 106.573 39.1016 105.84C39.1016 105.107 38.9749 104.44 38.7216 103.84C38.4816 103.227 38.1416 102.707 37.7016 102.28C37.2749 101.853 36.7682 101.52 36.1816 101.28C35.6082 101.04 34.9882 100.92 34.3216 100.92C33.6549 100.92 33.0282 101.04 32.4416 101.28C31.8682 101.52 31.3616 101.853 30.9216 102.28C30.4949 102.707 30.1549 103.227 29.9016 103.84C29.6616 104.44 29.5416 105.107 29.5416 105.84C29.5416 106.573 29.6616 107.247 29.9016 107.86C30.1549 108.46 30.4949 108.973 30.9216 109.4C31.3616 109.827 31.8682 110.16 32.4416 110.4C33.0282 110.64 33.6549 110.76 34.3216 110.76ZM58.4214 113V101.24H54.4214V98.68H65.1214V101.24H61.1214V113H58.4214ZM81.7416 101.24V104.56H87.4816V107.12H81.7416V110.44H88.1216V113H79.0416V98.68H88.1216V101.24H81.7416ZM102.604 98.68H105.304V110.44H111.364V113H102.604V98.68ZM141.682 98.68H144.382V104.4H150.402V98.68H153.102V113H150.402V106.96H144.382V113H141.682V98.68ZM173.219 113.32C172.379 113.32 171.612 113.187 170.919 112.92C170.239 112.64 169.659 112.24 169.179 111.72C168.699 111.2 168.326 110.573 168.059 109.84C167.792 109.093 167.659 108.247 167.659 107.3V98.68H170.359V107.46C170.359 107.94 170.419 108.38 170.539 108.78C170.659 109.18 170.839 109.527 171.079 109.82C171.319 110.113 171.619 110.347 171.979 110.52C172.339 110.68 172.752 110.76 173.219 110.76C173.699 110.76 174.119 110.68 174.479 110.52C174.839 110.347 175.139 110.113 175.379 109.82C175.619 109.527 175.799 109.18 175.919 108.78C176.039 108.38 176.099 107.94 176.099 107.46V98.68H178.799V107.3C178.799 108.193 178.666 109.013 178.399 109.76C178.146 110.493 177.772 111.127 177.279 111.66C176.799 112.18 176.212 112.587 175.519 112.88C174.839 113.173 174.072 113.32 173.219 113.32ZM193.358 98.68H198.958C199.571 98.68 200.145 98.78 200.678 98.98C201.211 99.1667 201.671 99.4333 202.058 99.78C202.458 100.113 202.771 100.507 202.998 100.96C203.225 101.413 203.338 101.9 203.338 102.42C203.338 103.18 203.151 103.82 202.778 104.34C202.418 104.847 201.965 105.233 201.418 105.5V105.66C202.151 105.927 202.738 106.347 203.178 106.92C203.631 107.48 203.858 108.18 203.858 109.02C203.858 109.633 203.731 110.187 203.478 110.68C203.238 111.16 202.905 111.573 202.478 111.92C202.051 112.267 201.551 112.533 200.978 112.72C200.418 112.907 199.811 113 199.158 113H193.358V98.68ZM198.758 104.52C199.385 104.52 199.865 104.353 200.198 104.02C200.545 103.673 200.718 103.267 200.718 102.8C200.718 102.333 200.551 101.933 200.218 101.6C199.885 101.267 199.425 101.1 198.838 101.1H196.058V104.52H198.758ZM199.058 110.52C199.738 110.52 200.258 110.353 200.618 110.02C200.978 109.673 201.158 109.233 201.158 108.7C201.158 108.167 200.971 107.727 200.598 107.38C200.238 107.02 199.698 106.84 198.978 106.84H196.058V110.52H199.058Z" fill="white"/>
</svg>
