<svg width="241" height="132" viewBox="0 0 241 132" fill="none" xmlns="http://www.w3.org/2000/svg">
<path d="M124.275 32.8445H137.57C137.644 33.1465 137.708 33.5123 137.758 33.9421C137.808 34.3719 137.833 34.8017 137.833 35.2314C137.833 36.9719 137.566 38.6164 137.037 40.1544C136.508 41.6959 135.673 43.0705 134.536 44.2817C133.325 45.5711 131.872 46.5656 130.182 47.2724C128.491 47.9793 126.559 48.3345 124.389 48.3345C122.417 48.3345 120.563 47.9793 118.823 47.2724C117.082 46.5656 115.566 45.5817 114.276 44.3172C112.987 43.0563 111.967 41.5574 111.207 39.8276C110.451 38.0978 110.071 36.2118 110.071 34.1659C110.071 32.12 110.451 30.2339 111.207 28.5041C111.964 26.7743 112.987 25.279 114.276 24.0145C115.566 22.7536 117.079 21.7661 118.823 21.0593C120.563 20.3525 122.421 19.9973 124.389 19.9973C126.584 19.9973 128.548 20.3773 130.278 21.1339C132.007 21.8905 133.492 22.9383 134.728 24.2773L131.205 27.7227C130.32 26.7885 129.336 26.0746 128.249 25.5845C127.163 25.0907 125.863 24.8457 124.349 24.8457C123.113 24.8457 121.938 25.0659 120.826 25.5099C119.714 25.9503 118.745 26.5754 117.91 27.3853C117.075 28.1951 116.414 29.1719 115.921 30.3191C115.427 31.47 115.182 32.7487 115.182 34.1623C115.182 35.576 115.427 36.8582 115.921 38.0055C116.414 39.1563 117.082 40.1331 117.928 40.9394C118.773 41.7492 119.75 42.3743 120.861 42.8148C121.973 43.2552 123.16 43.479 124.42 43.479C125.859 43.479 127.077 43.2694 128.075 42.8539C129.073 42.4383 129.926 41.9019 130.633 41.2448C131.137 40.7902 131.574 40.2148 131.94 39.5222C132.306 38.8295 132.59 38.0517 132.792 37.1921H124.271V32.8445H124.275Z" fill="white"/>
<path d="M144.233 26.6713C143.803 26.6713 143.395 26.5896 143.001 26.4262C142.61 26.2628 142.269 26.0355 141.978 25.7442C141.686 25.453 141.459 25.1191 141.296 24.7391C141.132 24.359 141.051 23.9434 141.051 23.4888C141.051 23.0341 141.132 22.6186 141.296 22.2385C141.459 21.8585 141.686 21.5246 141.978 21.2333C142.269 20.9421 142.61 20.7147 143.001 20.5513C143.391 20.388 143.803 20.3063 144.233 20.3063C145.117 20.3063 145.874 20.6153 146.506 21.2333C147.139 21.8514 147.455 22.6044 147.455 23.4852C147.455 24.3697 147.139 25.1191 146.506 25.7372C145.874 26.3623 145.117 26.6713 144.233 26.6713ZM141.772 47.727V29.1683H146.734V47.727H141.772Z" fill="white"/>
<path d="M159.648 56.5145C158.334 56.5145 157.169 56.344 156.146 56.003C155.123 55.662 154.235 55.2216 153.475 54.6781C152.719 54.1347 152.086 53.5344 151.582 52.8809C151.078 52.2238 150.712 51.5667 150.484 50.9096L155.219 49.0164C155.571 50.0003 156.153 50.7639 156.963 51.3074C157.769 51.8508 158.668 52.1208 159.652 52.1208C161.218 52.1208 162.454 51.6128 163.364 50.597C164.273 49.5811 164.728 48.1817 164.728 46.4022V45.1128H164.426C163.843 45.9227 163.08 46.5585 162.135 47.0273C161.186 47.4962 160.071 47.727 158.782 47.727C157.67 47.727 156.59 47.5033 155.542 47.0522C154.495 46.6011 153.567 45.9582 152.758 45.1199C151.948 44.2817 151.294 43.2765 150.79 42.1008C150.286 40.9251 150.033 39.6145 150.033 38.1617C150.033 36.709 150.286 35.3912 150.79 34.2049C151.294 33.0186 151.951 32.0063 152.758 31.168C153.564 30.3298 154.495 29.6869 155.542 29.2358C156.59 28.7847 157.67 28.5609 158.782 28.5609C160.071 28.5609 161.186 28.7954 162.135 29.2607C163.083 29.7295 163.847 30.3653 164.426 31.1716H164.728V29.1647H169.462V46.3986C169.462 47.965 169.221 49.3716 168.741 50.6219C168.262 51.8721 167.594 52.9306 166.734 53.8044C165.875 54.6746 164.845 55.3459 163.648 55.8112C162.444 56.2801 161.112 56.5145 159.648 56.5145ZM159.837 43.2587C160.444 43.2587 161.041 43.1486 161.634 42.9248C162.227 42.7011 162.753 42.3743 163.207 41.941C163.662 41.5077 164.028 40.9749 164.305 40.3426C164.582 39.7104 164.721 38.9858 164.721 38.1653C164.721 37.3484 164.582 36.6167 164.305 35.9702C164.028 35.3273 163.662 34.7874 163.207 34.3541C162.753 33.9207 162.227 33.5904 161.634 33.3702C161.041 33.1464 160.44 33.0363 159.837 33.0363C159.229 33.0363 158.636 33.1464 158.057 33.3702C157.475 33.594 156.96 33.9279 156.505 34.3754C156.05 34.823 155.684 35.3628 155.407 35.9915C155.13 36.6238 154.992 37.3484 154.992 38.1653C154.992 38.9822 155.13 39.7104 155.407 40.3426C155.684 40.9749 156.05 41.5077 156.505 41.941C156.96 42.3743 157.478 42.7046 158.057 42.9248C158.636 43.1486 159.233 43.2587 159.837 43.2587Z" fill="white"/>
<path d="M182.068 56.5145C180.754 56.5145 179.589 56.344 178.566 56.003C177.543 55.662 176.655 55.2216 175.895 54.6781C175.138 54.1347 174.506 53.5344 174.002 52.8809C173.497 52.2238 173.131 51.5667 172.904 50.9096L177.639 49.0164C177.99 50.0003 178.573 50.7639 179.379 51.3074C180.186 51.8508 181.084 52.1208 182.068 52.1208C183.634 52.1208 184.871 51.6128 185.78 50.597C186.689 49.5811 187.144 48.1817 187.144 46.4022V45.1128H186.842C186.259 45.9227 185.496 46.5585 184.551 47.0273C183.602 47.4962 182.487 47.727 181.198 47.727C180.086 47.727 179.006 47.5033 177.958 47.0522C176.911 46.6011 175.984 45.9582 175.174 45.1199C174.364 44.2817 173.71 43.2765 173.206 42.1008C172.702 40.9251 172.449 39.6145 172.449 38.1617C172.449 36.709 172.702 35.3912 173.206 34.2049C173.71 33.0186 174.367 32.0063 175.174 31.168C175.98 30.3298 176.911 29.6869 177.958 29.2358C179.006 28.7847 180.086 28.5609 181.198 28.5609C182.487 28.5609 183.602 28.7954 184.551 29.2607C185.499 29.7295 186.259 30.3653 186.842 31.1716H187.144V29.1647H191.878V46.3986C191.878 47.965 191.637 49.3716 191.157 50.6219C190.678 51.8721 190.007 52.9306 189.151 53.8044C188.291 54.6746 187.261 55.3459 186.064 55.8112C184.867 56.2801 183.531 56.5145 182.068 56.5145ZM182.26 43.2587C182.867 43.2587 183.464 43.1486 184.057 42.9248C184.65 42.7011 185.176 42.3743 185.631 41.941C186.085 41.5077 186.451 40.9749 186.728 40.3426C187.005 39.7104 187.144 38.9858 187.144 38.1653C187.144 37.3484 187.005 36.6167 186.728 35.9702C186.451 35.3273 186.085 34.7874 185.631 34.3541C185.176 33.9207 184.65 33.5904 184.057 33.3702C183.464 33.1464 182.864 33.0363 182.26 33.0363C181.656 33.0363 181.059 33.1464 180.48 33.3702C179.898 33.594 179.383 33.9279 178.928 34.3754C178.474 34.823 178.108 35.3628 177.831 35.9915C177.554 36.6238 177.415 37.3484 177.415 38.1653C177.415 38.9822 177.554 39.7104 177.831 40.3426C178.108 40.9749 178.474 41.5077 178.928 41.941C179.383 42.3743 179.898 42.7046 180.48 42.9248C181.059 43.1486 181.652 43.2587 182.26 43.2587Z" fill="white"/>
<path d="M196.119 47.727V20.6082H201.081V47.727H196.119Z" fill="white"/>
<path d="M222.709 43.2587C221.849 44.7718 220.695 45.9973 219.242 46.9314C217.79 47.8656 216.017 48.3344 213.922 48.3344C212.508 48.3344 211.201 48.0893 210 47.5956C208.8 47.1019 207.759 46.4164 206.875 45.532C205.99 44.6475 205.305 43.6068 204.811 42.4063C204.317 41.2057 204.072 39.888 204.072 38.4494C204.072 37.1104 204.31 35.8424 204.793 34.6418C205.273 33.4413 205.94 32.3934 206.8 31.4984C207.66 30.6033 208.675 29.8893 209.848 29.3601C211.023 28.8309 212.316 28.5645 213.73 28.5645C215.218 28.5645 216.546 28.8096 217.708 29.3033C218.869 29.797 219.843 30.479 220.624 31.3492C221.405 32.2194 221.999 33.2495 222.404 34.4358C222.808 35.6221 223.011 36.9115 223.011 38.3003C223.011 38.4779 223.011 38.627 223.011 38.7549C222.986 38.9076 222.972 39.0462 222.972 39.1705C222.947 39.2984 222.933 39.4369 222.933 39.5861H208.956C209.055 40.3426 209.265 40.9926 209.581 41.5361C209.897 42.0795 210.288 42.5342 210.757 42.9C211.222 43.2658 211.734 43.5322 212.291 43.6956C212.845 43.859 213.414 43.9407 213.996 43.9407C215.133 43.9407 216.074 43.6814 216.816 43.1628C217.562 42.6443 218.148 41.9943 218.578 41.2128L222.709 43.2587ZM218.202 36.0626C218.177 35.7358 218.07 35.3699 217.878 34.965C217.69 34.5601 217.41 34.1836 217.044 33.8284C216.678 33.4768 216.223 33.1855 215.68 32.9582C215.136 32.7309 214.486 32.6172 213.73 32.6172C212.668 32.6172 211.734 32.9191 210.927 33.5265C210.121 34.1339 209.549 34.9792 209.222 36.0626H218.202Z" fill="white"/>
<path d="M49.6776 31.9672H17V32.3224C17 50.3697 31.6303 65 49.6776 65V31.9672Z" fill="white"/>
<path d="M56.4262 31.9672H89.1038V32.3224C89.1038 50.3697 74.4735 65 56.4262 65V31.9672Z" fill="white"/>
<path d="M33.3388 26.2842C40.597 26.2842 46.4809 20.4002 46.4809 13.1421C46.4809 5.88391 40.597 0 33.3388 0C26.0806 0 20.1967 5.88391 20.1967 13.1421C20.1967 20.4002 26.0806 26.2842 33.3388 26.2842Z" fill="white"/>
<path d="M72.765 26.2842C80.0232 26.2842 85.9071 20.4002 85.9071 13.1421C85.9071 5.88391 80.0232 0 72.765 0C65.5069 0 59.623 5.88391 59.623 13.1421C59.623 20.4002 65.5069 26.2842 72.765 26.2842Z" fill="white"/>
<path d="M4.28 101.28L4.22 104.76L6.02 104.78L8.2 104.72L8.38 104.92L8.18 106.94L5.8 106.88L4.18 106.9L4.16 107.92L4.28 112H1.56L1.7 108.16L1.56 99.12H9.22L9.38 99.34L9.18 101.38L6.12 101.26L4.28 101.28ZM25.2811 107.92L25.4011 112H22.6811L22.8211 108.16L22.6811 99.12H25.4411L25.2811 107.92ZM51.2195 108.02L51.3195 112H48.3995L43.1395 103.28H42.9795L42.9595 107.56L43.0395 112H40.5795L40.7195 108.2L40.5995 99.12H43.4995L48.7595 107.84H48.9395L48.8795 99.24L51.3795 99.08L51.2195 108.02ZM76.6058 112H73.8458L73.5258 110.32L73.1858 109.12L70.6658 109.06L68.4458 109.12L68.1058 110.18L67.7658 112H65.0858L69.4458 99.12H72.6658L76.6058 112ZM72.6058 107.02L71.0858 101.66H70.9058L69.1458 107.02L70.8658 107.06L72.6058 107.02ZM101.118 108.02L101.218 112H98.298L93.038 103.28H92.878L92.858 107.56L92.938 112H90.478L90.618 108.2L90.498 99.12H93.398L98.658 107.84H98.838L98.778 99.24L101.278 99.08L101.118 108.02ZM121.368 98.96C122.622 98.96 123.748 99.22 124.748 99.74L124.268 102L124.048 102.1C123.648 101.82 123.208 101.6 122.728 101.44C122.248 101.28 121.755 101.2 121.248 101.2C119.128 101.2 118.068 102.593 118.068 105.38C118.068 106.887 118.342 108.02 118.888 108.78C119.448 109.527 120.262 109.9 121.328 109.9C121.822 109.9 122.328 109.827 122.848 109.68C123.382 109.52 123.862 109.307 124.288 109.04L124.528 109.18L124.308 111.48C123.295 111.947 122.228 112.18 121.108 112.18C119.188 112.18 117.722 111.62 116.708 110.5C115.708 109.38 115.208 107.773 115.208 105.68C115.208 103.547 115.742 101.893 116.808 100.72C117.888 99.5467 119.408 98.96 121.368 98.96ZM146.64 109.76L146.8 109.98L146.62 112H138.54L138.68 108.16L138.54 99.12H146.7L146.86 99.34L146.66 101.36L143.58 101.26L141.26 101.28L141.2 104.38L143.42 104.42L145.52 104.36L145.68 104.56L145.5 106.58L143.22 106.52L141.16 106.54L141.14 107.92L141.2 109.86L143.46 109.88L146.64 109.76ZM186.484 107.92L186.564 112H183.864L183.984 108.16L183.964 106.66L181.064 106.64L178.444 106.68L178.424 107.92L178.524 112H175.824L175.964 108.16L175.824 99.12H178.564L178.484 104.44L181.244 104.48L183.944 104.44L183.864 99.12H186.624L186.484 107.92ZM211.569 105.66L211.549 107.36C211.563 108.893 211.116 110.08 210.209 110.92C209.303 111.76 208.003 112.18 206.309 112.18C204.683 112.18 203.443 111.773 202.589 110.96C201.736 110.147 201.329 108.98 201.369 107.46L201.389 105.6L201.329 99.12H204.049L203.909 107.1C203.896 108.073 204.103 108.793 204.529 109.26C204.956 109.727 205.603 109.96 206.469 109.96C208.203 109.96 209.063 109.053 209.049 107.24L208.909 99.12H211.669L211.569 105.66ZM233.223 105.32C234.103 105.533 234.75 105.893 235.163 106.4C235.59 106.893 235.803 107.547 235.803 108.36C235.803 110.853 233.85 112.1 229.943 112.1C228.797 112.1 227.623 112.067 226.423 112L226.563 108.16L226.423 99.12L231.003 99.1C232.323 99.1 233.35 99.38 234.083 99.94C234.817 100.487 235.183 101.28 235.183 102.32C235.183 103.013 235.01 103.62 234.663 104.14C234.33 104.66 233.85 105.053 233.223 105.32ZM232.403 102.68C232.403 102.093 232.23 101.68 231.883 101.44C231.537 101.187 230.93 101.06 230.063 101.06H229.083L229.023 104.56L230.903 104.62C231.41 104.487 231.783 104.267 232.023 103.96C232.277 103.653 232.403 103.227 232.403 102.68ZM230.403 110.16C231.243 110.16 231.89 109.993 232.343 109.66C232.81 109.327 233.043 108.847 233.043 108.22C233.043 107.273 232.43 106.687 231.203 106.46L228.983 106.5L228.963 107.92L229.023 110.08C229.49 110.133 229.95 110.16 230.403 110.16Z" fill="white"/>
</svg>
